<?xml version="1.0" standalone="no"?>
<!DOCTYPE svg PUBLIC "-//W3C//DTD SVG 20010904//EN"
 "http://www.w3.org/TR/2001/REC-SVG-20010904/DTD/svg10.dtd">
<svg version="1.0" xmlns="http://www.w3.org/2000/svg"
 width="260.000000pt" height="260.000000pt" viewBox="0 0 260.000000 260.000000"
 preserveAspectRatio="xMidYMid meet">
<metadata>
Created by potrace 1.11, written by Peter Selinger 2001-2013
</metadata>
<g transform="translate(0.000000,260.000000) scale(0.100000,-0.100000)"
fill="#000000" stroke="none">
<path d="M0 1955 l0 -645 50 0 50 0 0 95 0 95 50 0 50 0 0 50 0 50 50 0 50 0
0 50 0 50 50 0 50 0 0 50 0 50 50 0 50 0 0 100 0 100 50 0 50 0 0 50 0 50 50
0 50 0 0 50 0 50 50 0 50 0 0 100 0 100 50 0 50 0 0 50 0 50 50 0 50 0 0 50 0
50 -500 0 -500 0 0 -645z"/>
<path d="M1500 2550 l0 -50 50 0 50 0 0 -50 0 -50 50 0 50 0 0 -100 0 -100 50
0 50 0 0 -50 0 -50 50 0 50 0 0 -50 0 -50 50 0 50 0 0 -100 0 -100 50 0 50 0
0 -50 0 -50 50 0 50 0 0 -50 0 -50 50 0 50 0 0 -50 0 -50 50 0 50 0 0 -95 0
-95 50 0 50 0 0 -55 0 -55 50 0 50 0 0 700 0 700 -550 0 -550 0 0 -50z"/>
<path d="M980 1355 l0 -45 50 0 50 0 0 -55 0 -55 50 0 50 0 0 -50 0 -50 -100
0 -100 0 0 50 0 50 -100 0 -100 0 0 -50 0 -50 100 0 100 0 0 -50 0 -50 -50 0
-50 0 0 -50 0 -50 -50 0 -50 0 0 50 0 50 -50 0 -50 0 0 -50 0 -50 50 0 50 0 0
-50 0 -50 -50 0 -50 0 0 -50 0 -50 -150 0 -150 0 0 -50 0 -50 -50 0 -50 0 0
-50 0 -50 50 0 50 0 0 50 0 50 150 0 150 0 0 -50 0 -50 -50 0 -50 0 0 -100 0
-100 -50 0 -50 0 0 -150 0 -150 100 0 100 0 0 50 0 50 -50 0 -50 0 0 50 0 50
50 0 50 0 0 50 0 50 50 0 50 0 0 -100 0 -100 50 0 50 0 0 -50 0 -50 50 0 50 0
0 50 0 50 -50 0 -50 0 0 150 0 150 -50 0 -50 0 0 50 0 50 50 0 50 0 0 50 0 50
50 0 50 0 0 50 0 50 100 0 100 0 0 -50 0 -50 50 0 50 0 0 -50 0 -50 50 0 50 0
0 -50 0 -50 -50 0 -50 0 0 -50 0 -50 -50 0 -50 0 0 -100 0 -100 50 0 50 0 0
-50 0 -50 100 0 100 0 0 50 0 50 -100 0 -100 0 0 100 0 100 200 0 200 0 0 -50
0 -50 50 0 50 0 0 -50 0 -50 50 0 50 0 0 -50 0 -50 100 0 100 0 0 50 0 50
-100 0 -100 0 0 50 0 50 255 0 255 0 0 50 0 50 -55 0 -55 0 0 50 0 50 -50 0
-50 0 0 -50 0 -50 -50 0 -50 0 0 50 0 50 -100 0 -100 0 0 50 0 50 -50 0 -50 0
0 50 0 50 -50 0 -50 0 0 100 0 100 -50 0 -50 0 0 50 0 50 -50 0 -50 0 0 50 0
50 -50 0 -50 0 0 50 0 50 -50 0 -50 0 0 50 0 50 -50 0 -50 0 0 55 0 55 -50 0
-50 0 0 45 0 45 -50 0 -50 0 0 -45z m900 -1105 l0 -50 -50 0 -50 0 0 50 0 50
50 0 50 0 0 -50z"/>
</g>
</svg>
