<?xml version="1.0" encoding="UTF-8" standalone="no"?>
<svg
   width="225.84677mm"
   height="42.804466mm"
   viewBox="0 0 225.84677 42.804468"
   version="1.1"
   id="svg8"
   inkscape:version="1.2 (dc2aedaf03, 2022-05-15)"
   sodipodi:docname="tendril.svg"
   xmlns:inkscape="http://www.inkscape.org/namespaces/inkscape"
   xmlns:sodipodi="http://sodipodi.sourceforge.net/DTD/sodipodi-0.dtd"
   xmlns="http://www.w3.org/2000/svg"
   xmlns:svg="http://www.w3.org/2000/svg"
   xmlns:rdf="http://www.w3.org/1999/02/22-rdf-syntax-ns#"
   xmlns:cc="http://creativecommons.org/ns#"
   xmlns:dc="http://purl.org/dc/elements/1.1/">
  <defs
     id="defs2">
    <rect
       x="-534"
       y="554"
       width="2528"
       height="858"
       id="rect167" />
    <pattern
       id="EMFhbasepattern"
       patternUnits="userSpaceOnUse"
       width="6"
       height="6"
       x="0"
       y="0" />
    <rect
       x="-534"
       y="554"
       width="2528"
       height="858"
       id="rect167-4" />
    <rect
       x="-534"
       y="554"
       width="2528"
       height="858"
       id="rect167-0" />
    <rect
       x="-534"
       y="554"
       width="2528"
       height="858"
       id="rect167-0-4" />
    <rect
       x="-534"
       y="554"
       width="2528"
       height="858"
       id="rect167-0-4-5" />
    <rect
       x="-534"
       y="554"
       width="2528"
       height="858"
       id="rect167-0-4-5-2" />
    <rect
       x="-534"
       y="554"
       width="2528"
       height="858"
       id="rect167-0-4-5-4" />
    <rect
       x="-534"
       y="554"
       width="2528"
       height="858"
       id="rect167-0-4-5-4-9" />
    <rect
       x="-534"
       y="554"
       width="2528"
       height="858"
       id="rect167-0-4-5-4-9-9" />
    <rect
       x="-534"
       y="554"
       width="2528"
       height="858"
       id="rect167-0-4-5-4-9-9-1" />
    <rect
       x="-534"
       y="554"
       width="2528"
       height="858"
       id="rect167-0-4-5-4-9-9-3" />
    <rect
       x="-534"
       y="554"
       width="2528"
       height="858"
       id="rect167-0-4-5-4-9-9-3-1" />
    <pattern
       id="EMFhbasepattern-3"
       patternUnits="userSpaceOnUse"
       width="6"
       height="6"
       x="0"
       y="0" />
  </defs>
  <sodipodi:namedview
     id="base"
     pagecolor="#000000"
     bordercolor="#666666"
     borderopacity="1.0"
     inkscape:pageopacity="0"
     inkscape:pageshadow="2"
     inkscape:zoom="1"
     inkscape:cx="723"
     inkscape:cy="151"
     inkscape:document-units="mm"
     inkscape:current-layer="layer2"
     inkscape:document-rotation="0"
     showgrid="false"
     showguides="false"
     inkscape:snap-global="false"
     inkscape:window-width="2560"
     inkscape:window-height="1369"
     inkscape:window-x="-8"
     inkscape:window-y="-8"
     inkscape:window-maximized="1"
     inkscape:showpageshadow="2"
     inkscape:pagecheckerboard="false"
     inkscape:deskcolor="#d1d1d1" />
  <metadata
     id="metadata5">
    <rdf:RDF>
      <cc:Work
         rdf:about="">
        <dc:format>image/svg+xml</dc:format>
        <dc:type
           rdf:resource="http://purl.org/dc/dcmitype/StillImage" />
      </cc:Work>
    </rdf:RDF>
  </metadata>
  <g
     inkscape:groupmode="layer"
     id="layer2"
     inkscape:label="main"
     style="display:inline"
     transform="translate(-348.73776,23.61456)">
    <path
       d="m 357.17136,-19.558994 v 12.8736326 h -4.92373 V -19.558994 h -3.50987 v -4.055566 h 11.94346 v 4.055566 z"
       style="font-weight:normal;font-size:25.4px;font-family:'Franklin Gothic Heavy';-inkscape-font-specification:'Franklin Gothic Heavy, ';letter-spacing:20.9021px;fill:#ff00c0;fill-opacity:1;stroke-width:0.264583"
       id="path6551" />
    <path
       d="m 395.79641,-10.728525 v 4.0431636 H 383.0592 V -23.61456 h 12.73721 v 3.906738 h -7.63985 v 2.455664 h 6.17637 v 3.75791 h -6.17637 v 2.765723 z"
       style="font-weight:normal;font-size:25.4px;font-family:'Franklin Gothic Heavy';-inkscape-font-specification:'Franklin Gothic Heavy, ';letter-spacing:20.9021px;fill:#ff00c0;fill-opacity:1;stroke-width:0.264583"
       id="path6553" />
    <path
       d="M 457.08469,-6.6853614 V -23.61456 h 6.54844 q 4.2664,0 6.3872,2.530078 2.1208,2.530078 2.1208,5.853906 0,3.795117 -2.28203,6.176367 -2.26963,2.3688476 -5.90351,2.3688476 z m 5.19658,-3.8943356 h 1.35186 q 1.28984,0 2.17041,-1.252637 0.89297,-1.252637 0.89297,-3.410644 0,-1.84795 -0.79375,-3.187403 -0.78135,-1.339453 -2.26963,-1.339453 h -1.35186 z"
       style="font-weight:normal;font-size:25.4px;font-family:'Franklin Gothic Heavy';-inkscape-font-specification:'Franklin Gothic Heavy, ';letter-spacing:20.9021px;fill:#ff00c0;fill-opacity:1;stroke-width:0.264583"
       id="path6557" />
    <path
       d="m 510.3073,-6.6853614 h -5.76709 l -2.46807,-6.4740236 h -1.63711 v 6.4740236 h -5.19658 V -23.61456 h 8.84287 q 2.92696,0 4.53926,1.37666 1.62471,1.364258 1.62471,3.609082 0,1.463476 -0.59531,2.59209 -0.59532,1.11621 -2.40606,1.971972 z m -9.87227,-10.0955076 h 2.22002 q 0.97979,0 1.5751,-0.409277 0.59531,-0.409278 0.59531,-1.203028 0,-1.624707 -1.99677,-1.624707 h -2.39366 z"
       style="font-weight:normal;font-size:25.4px;font-family:'Franklin Gothic Heavy';-inkscape-font-specification:'Franklin Gothic Heavy, ';letter-spacing:20.9021px;fill:#ff00c0;fill-opacity:1;stroke-width:0.264583"
       id="path6559" />
    <path
       d="m 538.86164,-23.61456 v 16.9291986 h -5.19658 V -23.61456 Z"
       style="font-weight:normal;font-size:25.4px;font-family:'Franklin Gothic Heavy';-inkscape-font-specification:'Franklin Gothic Heavy, ';letter-spacing:20.9021px;fill:#ff00c0;fill-opacity:1;stroke-width:0.264583"
       id="path6561" />
    <path
       d="m 574.58453,-10.840146 v 4.1547846 H 562.71549 V -23.61456 h 5.19658 v 12.774414 z"
       style="font-weight:normal;font-size:25.4px;font-family:'Franklin Gothic Heavy';-inkscape-font-specification:'Franklin Gothic Heavy, ';letter-spacing:20.9021px;fill:#ff00c0;fill-opacity:1;stroke-width:0.264583"
       id="path6563" />
    <path
       d="m 356.02584,1.851991 v 1.1231019 h -3.53811 v -4.7025584 h 3.53811 v 1.08520579 h -2.12218 v 0.68212935 h 1.71566 V 1.0837342 h -1.71566 V 1.851991 Z"
       style="font-weight:normal;font-size:7.05556px;font-family:'Franklin Gothic Heavy';-inkscape-font-specification:'Franklin Gothic Heavy, ';letter-spacing:13.8112px;fill:#ffffff;fill-opacity:1;stroke-width:0.264583"
       id="path6635" />
    <path
       d="m 372.9962,1.180197 1.31947,0.079237 q -0.093,0.8647196 -0.64079,1.3263626 -0.54433,0.4616431 -1.34014,0.4616431 -0.95774,0 -1.54685,-0.6338979 -0.58911,-0.633898 -0.58911,-1.75010968 0,-1.10587636 0.5581,-1.78456062 0.55811,-0.6786842 1.55719,-0.6786842 0.93362,0 1.43316,0.5167646 0.50298,0.51676467 0.56844,1.37114891 l -1.34704,0.07234705 q 0,-0.47197839 -0.18259,-0.68212935 -0.17914,-0.21015096 -0.42374,-0.21015096 -0.68213,0 -0.68213,1.37114889 0,0.76825676 0.1757,1.04386456 0.17914,0.2756079 0.49954,0.2756079 0.57188,0 0.64079,-0.7785919 z"
       style="font-weight:normal;font-size:7.05556px;font-family:'Franklin Gothic Heavy';-inkscape-font-specification:'Franklin Gothic Heavy, ';letter-spacing:13.8112px;fill:#ffffff;fill-opacity:1;stroke-width:0.264583"
       id="path6637" />
    <path
       d="M 392.64339,-1.7274655 V 2.9750929 H 391.1999 V 1.145746 h -1.10243 v 1.8293469 h -1.4435 v -4.7025584 h 1.4435 v 1.72943906 h 1.10243 V -1.7274655 Z"
       style="font-weight:normal;font-size:7.05556px;font-family:'Franklin Gothic Heavy';-inkscape-font-specification:'Franklin Gothic Heavy, ';letter-spacing:13.8112px;fill:#ffffff;fill-opacity:1;stroke-width:0.264583"
       id="path6639" />
    <path
       d="m 409.30369,3.0474399 q -0.99219,0 -1.6192,-0.6580136 -0.62356,-0.6580137 -0.62356,-1.76044495 0,-1.0541999 0.596,-1.73977435 0.59945,-0.6890195 1.66054,-0.6890195 0.98185,0 1.59852,0.6476783 0.62012,0.6476784 0.62012,1.72943908 0,1.11965672 -0.62356,1.79489592 -0.62356,0.6752391 -1.60886,0.6752391 z m -0.007,-1.0679803 q 0.36518,0 0.52365,-0.3169489 0.16192,-0.3203941 0.16192,-1.16788816 0,-1.22645479 -0.65801,-1.22645479 -0.70969,0 -0.70969,1.39870967 0,1.31258218 0.68213,1.31258218 z"
       style="font-weight:normal;font-size:7.05556px;font-family:'Franklin Gothic Heavy';-inkscape-font-specification:'Franklin Gothic Heavy, ';letter-spacing:13.8112px;fill:#ffffff;fill-opacity:1;stroke-width:0.264583"
       id="path6641" />
    <path
       d="m 445.71798,2.9750929 h -1.60197 l -0.68558,-1.798341 h -0.45475 v 1.798341 h -1.4435 v -4.7025584 h 2.45636 q 0.81304,0 1.2609,0.3824059 0.45131,0.37896071 0.45131,1.00252339 0,0.40652153 -0.16536,0.72002542 -0.16537,0.3100588 -0.66835,0.54777054 z m -2.7423,-2.80430955 h 0.61667 q 0.27216,0 0.43753,-0.11368822 0.16536,-0.11368823 0.16536,-0.33417448 0,-0.4513078 -0.55466,-0.4513078 h -0.6649 z"
       style="font-weight:normal;font-size:7.05556px;font-family:'Franklin Gothic Heavy';-inkscape-font-specification:'Franklin Gothic Heavy, ';letter-spacing:13.8112px;fill:#ffffff;fill-opacity:1;stroke-width:0.264583"
       id="path6643" />
    <path
       d="m 463.74942,1.851991 v 1.1231019 h -3.53812 v -4.7025584 h 3.53812 v 1.08520579 h -2.12218 v 0.68212935 h 1.71566 V 1.0837342 h -1.71566 V 1.851991 Z"
       style="font-weight:normal;font-size:7.05556px;font-family:'Franklin Gothic Heavy';-inkscape-font-specification:'Franklin Gothic Heavy, ';letter-spacing:13.8112px;fill:#ffffff;fill-opacity:1;stroke-width:0.264583"
       id="path6645" />
    <path
       d="m 480.71978,1.180197 1.31947,0.079237 q -0.093,0.8647196 -0.64079,1.3263626 -0.54432,0.4616431 -1.34014,0.4616431 -0.95774,0 -1.54685,-0.6338979 -0.58911,-0.633898 -0.58911,-1.75010968 0,-1.10587636 0.5581,-1.78456062 0.55811,-0.6786842 1.55719,-0.6786842 0.93362,0 1.43316,0.5167646 0.50298,0.51676467 0.56844,1.37114891 l -1.34703,0.07234705 q 0,-0.47197839 -0.18259,-0.68212935 -0.17915,-0.21015096 -0.42375,-0.21015096 -0.68213,0 -0.68213,1.37114889 0,0.76825676 0.1757,1.04386456 0.17914,0.2756079 0.49954,0.2756079 0.57188,0 0.64079,-0.7785919 z"
       style="font-weight:normal;font-size:7.05556px;font-family:'Franklin Gothic Heavy';-inkscape-font-specification:'Franklin Gothic Heavy, ';letter-spacing:13.8112px;fill:#ffffff;fill-opacity:1;stroke-width:0.264583"
       id="path6647" />
    <path
       d="m 499.91566,1.851991 v 1.1231019 h -3.53812 v -4.7025584 h 3.53812 v 1.08520579 h -2.12218 v 0.68212935 h 1.71566 V 1.0837342 h -1.71566 V 1.851991 Z"
       style="font-weight:normal;font-size:7.05556px;font-family:'Franklin Gothic Heavy';-inkscape-font-specification:'Franklin Gothic Heavy, ';letter-spacing:13.8112px;fill:#ffffff;fill-opacity:1;stroke-width:0.264583"
       id="path6649" />
    <path
       d="m 515.74224,-1.7274655 v 4.7025584 h -1.44349 v -4.7025584 z"
       style="font-weight:normal;font-size:7.05556px;font-family:'Franklin Gothic Heavy';-inkscape-font-specification:'Franklin Gothic Heavy, ';letter-spacing:13.8112px;fill:#ffffff;fill-opacity:1;stroke-width:0.264583"
       id="path6651" />
    <path
       d="m 534.44204,-1.7274655 -1.46072,4.7025584 h -1.47106 l -1.52273,-4.7025584 h 1.52273 l 0.74069,2.56315271 q 0.0758,0.22737649 0.13436,0.44786269 l 0.86817,-3.0110154 z"
       style="font-weight:normal;font-size:7.05556px;font-family:'Franklin Gothic Heavy';-inkscape-font-specification:'Franklin Gothic Heavy, ';letter-spacing:13.8112px;fill:#ffffff;fill-opacity:1;stroke-width:0.264583"
       id="path6653" />
    <path
       d="m 552.22544,1.851991 v 1.1231019 h -3.53811 v -4.7025584 h 3.53811 v 1.08520579 h -2.12218 v 0.68212935 h 1.71566 V 1.0837342 h -1.71566 V 1.851991 Z"
       style="font-weight:normal;font-size:7.05556px;font-family:'Franklin Gothic Heavy';-inkscape-font-specification:'Franklin Gothic Heavy, ';letter-spacing:13.8112px;fill:#ffffff;fill-opacity:1;stroke-width:0.264583"
       id="path6655" />
    <path
       d="m 566.60853,2.9750929 v -4.7025584 h 1.81901 q 1.18511,0 1.77423,0.7027999 0.58911,0.70279998 0.58911,1.62608617 0,1.05419993 -0.6339,1.71565863 -0.63045,0.6580137 -1.63987,0.6580137 z m 1.4435,-1.0817607 h 0.37551 q 0.35829,0 0.60289,-0.3479549 0.24805,-0.3479548 0.24805,-0.94740183 0,-0.51331956 -0.22049,-0.88539011 -0.21704,-0.37207056 -0.63045,-0.37207056 h -0.37551 z"
       style="font-weight:normal;font-size:7.05556px;font-family:'Franklin Gothic Heavy';-inkscape-font-specification:'Franklin Gothic Heavy, ';letter-spacing:13.8112px;fill:#ffffff;fill-opacity:1;stroke-width:0.264583"
       id="path6657" />
    <g
       aria-label="TENDRIL"
       id="text6119"
       style="font-weight:bold;font-size:25.4px;font-family:'Franklin Gothic Heavy';-inkscape-font-specification:'Franklin Gothic Heavy,  Bold';letter-spacing:20.9021px;display:inline;fill:#ff00c0;fill-opacity:1;stroke-width:0.264583">
      <path
         d="m 433.23079,8.3124707 h -0.34342 l -4.41141,-9.5070811 v -5.49078 l -4.11284,-7.4786136 c -0.59531,-0.959114 -1.19476,-2.124934 -1.79834,-3.49746 0.27285,1.091406 0.40928,2.017448 0.40928,2.778125 v 13.6880818 l -3.86807,9.5077279 h -0.34873 V -23.61456 h 4.91133 l 3.94394,6.201171 c 0.78548,1.231967 1.38079,2.315105 1.78594,3.249414 -0.26459,-1.44694 -0.39688,-2.926953 -0.39688,-4.440039 v -5.010546 h 4.2292 z"
         style="font-weight:normal;-inkscape-font-specification:'Franklin Gothic Heavy, ';fill:#ff00c0;fill-opacity:1"
         id="path6125"
         sodipodi:nodetypes="ccccccscccccccsccc" />
    </g>
    <path
       id="rect6284"
       style="fill:#ffffff;fill-opacity:1;stroke-width:0.264583"
       d="m 431.24,8.4457629 -2.55676,-6.1560565 h -0.36828 l -1.64532,16.9001996 h 0.36731 z"
       sodipodi:nodetypes="cccccc" />
    <path
       id="path424"
       style="fill:#ffffff;fill-opacity:1;stroke-width:0.264583"
       d="m 420.82646,7.5804792 1.94872,-4.9867542 h 0.36828 l 0.94374,12.386687 h -0.36731 z"
       sodipodi:nodetypes="cccccc" />
  </g>
</svg>
